<svg width="269" height="35" viewBox="0 0 269 35" fill="none" xmlns="http://www.w3.org/2000/svg">
<g clip-path="url(#clip0_4_346)">
<path d="M229.305 13.8886V34.9796H236.046V20.9189H260.7V34.9796H267.442V13.8886H229.305ZM235.276 7.05085H261.278C264.938 6.37671 267.538 3.1023 268.309 0.0205078H228.245C229.016 3.1023 231.712 6.2804 235.276 7.05085ZM208.791 34.9796C212.162 33.535 213.992 31.031 214.762 28.1419H184.426V0.116814H177.588V34.9796H208.791ZM127.028 6.95454H151.104C154.764 5.89517 157.749 3.1023 158.52 0.116814H120.383V20.7263H151.586V27.9493H127.124C123.272 29.0086 119.997 31.6089 118.36 34.9796H158.327V13.8886H127.124L127.028 6.95454ZM67.7031 7.05085H93.7058C97.3654 6.37671 100.062 3.1023 100.736 0.0205078H60.5765C61.3469 3.1023 64.0435 6.2804 67.7031 7.05085ZM67.7031 20.8226H93.7058C97.3654 20.1485 100.062 16.8741 100.736 13.7923H60.5765C61.3469 16.8741 64.0435 20.0522 67.7031 20.8226ZM67.7031 34.9796H93.7058C97.3654 34.3055 100.062 31.031 100.736 27.9493H60.5765C61.3469 31.031 64.0435 34.3055 67.7031 34.9796Z" fill="#5E5E5E"/>
<path d="M0 0.116814C0.770448 3.19861 3.46702 6.2804 7.03034 7.05085H18.0092L18.5871 7.24346V34.8833H25.4248V7.24346L26.0026 7.05085H36.9815C40.6411 6.08779 43.2414 3.19861 44.0119 0.116814V0.0205078L0 0.116814Z" fill="#5E5E5E"/>
</g>
<defs>
<clipPath id="clip0_4_346">
<rect width="268.405" height="35" fill="white"/>
</clipPath>
</defs>
</svg>
